HIERARCHY
ROOT Hips
{
	OFFSET 0.000000 0.000000 0.000000
	CHANNELS 6 Xposition Yposition Zposition Zrotation Yrotation Xrotation 
	JOINT LHipJoint
	{
		OFFSET 0.000000 0.000000 0.000000
		CHANNELS 3 Zrotation Yrotation Xrotation
		JOINT LeftUpLeg
		{
			OFFSET 1.363060 -1.794630 0.839290
			CHANNELS 3 Zrotation Yrotation Xrotation
			JOINT LeftLeg
			{
				OFFSET 2.448110 -6.726130 0.000000
				CHANNELS 3 Zrotation Yrotation Xrotation
				JOINT LeftFoot
				{
					OFFSET 2.562200 -7.039590 0.000000
					CHANNELS 3 Zrotation Yrotation Xrotation
					JOINT LeftToeBase
					{
						OFFSET 0.157640 -0.433110 2.322550
						CHANNELS 3 Zrotation Yrotation Xrotation
						End Site
						{
							OFFSET 0.000000 0.000000 0.000000
						}
					}
				}
			}
		}
	}
	JOINT RHipJoint
	{
		OFFSET 0.000000 0.000000 0.000000
		CHANNELS 3 Zrotation Yrotation Xrotation
		JOINT RightUpLeg
		{
			OFFSET -1.305520 -1.794630 0.839290
			CHANNELS 3 Zrotation Yrotation Xrotation
			JOINT RightLeg
			{
				OFFSET -2.542530 -6.985550 0.000000
				CHANNELS 3 Zrotation Yrotation Xrotation
				JOINT RightFoot
				{
					OFFSET -2.568260 -7.056230 0.000000
					CHANNELS 3 Zrotation Yrotation Xrotation
					JOINT RightToeBase
					{
						OFFSET -0.164730 -0.452590 2.363150
						CHANNELS 3 Zrotation Yrotation Xrotation
						End Site
						{
							OFFSET 0.000000 0.000000 0.000000
						}
					}
				}
			}
		}
	}
	JOINT LowerBack
	{
		OFFSET 0.000000 0.000000 0.000000
		CHANNELS 3 Zrotation Yrotation Xrotation
		JOINT Spine
		{
			OFFSET 0.028270 2.035590 -0.193380
			CHANNELS 3 Zrotation Yrotation Xrotation
			JOINT Spine1
			{
				OFFSET 0.056720 2.048850 -0.042750
				CHANNELS 3 Zrotation Yrotation Xrotation
				JOINT Neck
				{
					OFFSET 0.000000 0.000000 0.000000
					CHANNELS 3 Zrotation Yrotation Xrotation
					JOINT Neck1
					{
						OFFSET -0.054170 1.746240 0.172020
						CHANNELS 3 Zrotation Yrotation Xrotation
						JOINT Head
						{
							OFFSET 0.104070 1.761360 -0.123970
							CHANNELS 3 Zrotation Yrotation Xrotation
							End Site
							{
								OFFSET 0.000000 0.000000 0.000000
							}
						}
					}
				}
				JOINT LeftShoulder
				{
					OFFSET 0.000000 0.000000 0.000000
					CHANNELS 3 Zrotation Yrotation Xrotation
					JOINT LeftArm
					{
						OFFSET 3.362410 1.200890 -0.311210
						CHANNELS 3 Zrotation Yrotation Xrotation
						JOINT LeftForeArm
						{
							OFFSET 4.983000 -0.000000 -0.000000
							CHANNELS 3 Zrotation Yrotation Xrotation
							JOINT LeftHand
							{
								OFFSET 3.483560 -0.000000 -0.000000
								CHANNELS 3 Zrotation Yrotation Xrotation
								JOINT LeftFingerBase
								{
									OFFSET 0.000000 0.000000 0.000000
									CHANNELS 3 Zrotation Yrotation Xrotation
									JOINT LeftHandIndex1
									{
										OFFSET 0.715260 -0.000000 -0.000000
										CHANNELS 3 Zrotation Yrotation Xrotation
										End Site
										{
											OFFSET 0.000000 0.000000 0.000000
										}
									}
								}
								JOINT LThumb
								{
									OFFSET 0.000000 0.000000 0.000000
									CHANNELS 3 Zrotation Yrotation Xrotation
									End Site
									{
										OFFSET 0.000000 0.000000 0.000000
									}
								}
							}
						}
					}
				}
				JOINT RightShoulder
				{
					OFFSET 0.000000 0.000000 0.000000
					CHANNELS 3 Zrotation Yrotation Xrotation
					JOINT RightArm
					{
						OFFSET -3.136600 1.374050 -0.404650
						CHANNELS 3 Zrotation Yrotation Xrotation
						JOINT RightForeArm
						{
							OFFSET -5.241900 -0.000000 -0.000000
							CHANNELS 3 Zrotation Yrotation Xrotation
							JOINT RightHand
							{
								OFFSET -3.444170 -0.000000 -0.000000
								CHANNELS 3 Zrotation Yrotation Xrotation
								JOINT RightFingerBase
								{
									OFFSET 0.000000 0.000000 0.000000
									CHANNELS 3 Zrotation Yrotation Xrotation
									JOINT RightHandIndex1
									{
										OFFSET -0.622530 -0.000000 -0.000000
										CHANNELS 3 Zrotation Yrotation Xrotation
										End Site
										{
											OFFSET 0.000000 0.000000 0.000000
										}
									}
								}
								JOINT RThumb
								{
									OFFSET 0.000000 0.000000 0.000000
									CHANNELS 3 Zrotation Yrotation Xrotation
									End Site
									{
										OFFSET 0.000000 0.000000 0.000000
									}
								}
							}
						}
					}
				}
			}
		}
	}
}
MOTION
Frames: 4
Frame Time: 0.008333
-14.011193 15.335599 1.455046 -14.028072 80.037554 3.411930 19.949658 0.663117 -4.635733 -24.850158 -13.654036 -38.018419 1.019026 25.026377 53.270714 -1.121733 -35.783566 -11.003849 0.393500 -4.028100 -11.155600 -24.342093 -1.537264 -3.588840 36.516485 24.177181 -35.151871 3.323091 -25.011983 48.075364 -4.021962 8.966220 -31.512745 -0.862700 5.922900 -16.560800 -0.267312 0.067437 21.445731 2.034435 0.523959 -4.559197 4.316393 0.831342 -20.984023 -5.634304 -8.477338 -25.883225 8.026322 -10.367289 11.445270 1.789900 -4.315100 11.976400 7.121501 -6.823457 1.097088 -78.952520 -2.445257 29.173843 57.034993 -54.495431 -28.932087 -0.337669 2.036873 2.318535 37.480874 29.183502 19.151800 -7.125000 0.000000 0.000000 10.006500 61.924100 4.142200 -8.396086 6.851433 1.836844 65.701593 -13.373905 48.919676 -62.955618 58.059100 -29.670865 0.854152 -2.403394 -0.578341 -23.633128 -13.986280 5.085200 7.125000 0.000000 0.000000 2.345800 -42.297600 0.156500 
-13.936064 15.401458 1.360192 -9.899211 76.001897 6.993550 19.341659 0.702734 -4.947080 -25.899797 -10.082058 -36.172052 0.847055 24.010409 52.487757 -0.689367 -35.524357 -11.796079 0.412900 -4.124700 -11.427600 -24.649491 -1.684237 -3.331523 36.602369 25.763417 -34.405179 3.521005 -24.825864 47.610225 -3.558006 10.182044 -29.965665 -0.894600 6.028500 -16.867200 -0.936811 -0.406079 21.047100 2.073804 -0.320933 -4.648529 4.948374 0.552084 -20.990561 -6.051146 -9.020932 -26.019024 8.456580 -11.017754 12.385083 2.016000 -4.505500 12.667100 6.956063 -6.704802 1.018113 -76.933911 -6.333719 28.112826 61.520305 -55.210644 -32.436486 -0.326165 1.964535 2.775418 37.528711 25.843834 17.117600 -7.125000 0.000000 0.000000 10.289000 58.230200 3.353200 -8.319458 6.878035 1.730387 63.725957 -14.570767 49.027295 -70.872879 58.987127 -35.484869 1.048423 -2.325628 -0.814289 -22.393507 -14.890682 5.256900 7.125000 0.000000 0.000000 3.432000 -43.254400 0.148000 
-13.851557 15.509139 1.266415 -7.177065 72.050076 9.262438 18.877494 0.787078 -5.157033 -27.019712 -6.892853 -34.416599 0.495217 22.991510 51.315049 -0.235471 -34.806400 -12.621969 0.416800 -4.143900 -11.481800 -24.755724 -1.800093 -3.145928 36.439253 26.800628 -33.467091 3.956361 -24.364281 46.462575 -2.969806 10.923008 -27.915934 -0.965800 6.257000 -17.531800 -1.684586 -1.034279 20.490562 2.126035 -1.397545 -4.842200 5.663724 0.207139 -21.139233 -6.156497 -9.249181 -25.737706 8.511564 -11.327930 13.338511 2.056900 -4.580800 13.207300 6.789316 -6.584629 0.935384 -74.386615 -9.976865 27.241132 66.602205 -55.755557 -36.651423 -0.367619 1.850915 3.108167 38.327690 26.213047 17.924700 -7.125000 0.000000 0.000000 11.314100 58.997300 3.901500 -8.206796 6.913313 1.625802 61.560407 -15.779485 49.810421 -79.669490 58.923505 -42.499513 1.081758 -2.301157 -1.510887 -24.033608 -13.289986 4.936900 7.125000 0.000000 0.000000 1.745700 -41.672000 0.143400 
-13.753146 15.663170 1.175872 -6.495854 68.001846 9.327409 18.440182 0.968377 -5.252495 -27.636380 -3.769718 -32.387891 0.062246 21.829790 49.714079 0.299894 -33.635109 -13.358603 0.410600 -4.113200 -11.395400 -24.794431 -1.915397 -3.019074 36.968108 27.442733 -31.856405 4.606272 -23.545341 44.752928 -2.130937 12.624824 -25.128659 -0.556500 4.778500 -13.278000 -2.004732 -1.747662 19.971770 2.270684 -2.475470 -5.150991 6.261331 -0.194180 -21.116607 -6.176420 -9.466711 -25.507121 8.667091 -11.680797 14.347805 2.151900 -4.650600 13.808400 6.627156 -6.452023 0.866774 -71.592541 -12.992176 26.457464 72.953172 -55.977269 -41.951772 -0.409701 1.757618 3.816406 36.587770 24.080860 15.682200 -7.125000 0.000000 0.000000 9.340400 56.312700 2.607200 -8.096329 6.923770 1.557861 59.282449 -16.467994 51.188849 -87.631211 57.984917 -49.509504 1.139182 -2.228677 -2.236865 -25.193083 -12.516183 4.850000 7.125000 0.000000 0.000000 0.616400 -40.978400 0.061100 
